<svg viewBox="0 0 512 512" xml:space="preserve" xmlns="http://www.w3.org/2000/svg"><path d="M248.066 121.006c0-14.837-12.071-26.909-26.909-26.909-14.833 0-26.9 12.071-26.9 26.909s12.067 26.909 26.9 26.909c14.838 0 26.909-12.071 26.909-26.909zm-43.808 0c0-9.323 7.581-16.909 16.9-16.909 9.323 0 16.909 7.585 16.909 16.909s-7.585 16.909-16.909 16.909c-9.319 0-16.9-7.585-16.9-16.909z" fill="#428534" class="fill-000000"></path><path d="M224.901 198.757c4.625-5.225 45.194-51.777 45.194-77.198 0-26.979-21.954-48.929-48.938-48.929-26.979 0-48.929 21.949-48.929 48.929 0 25.42 40.56 71.973 45.185 77.197l3.743 4.229 3.745-4.228zm-42.672-77.197c0-21.465 17.463-38.929 38.929-38.929 21.47 0 38.938 17.463 38.938 38.929 0 16.635-25.371 50.145-38.938 66.228-13.565-16.08-38.929-49.581-38.929-66.228zM45.697 354.72h48.194v10H45.697zM18.292 354.72h15.754v10H18.292zM64.802 382.037H93.89v10H64.802zM167.354 280.128h25.623v10h-25.623z" fill="#428534" class="fill-000000"></path><path d="M42.816 178.75v95.207h39.283l52.807 39.729a89.133 89.133 0 0 0-.382 4.226c-15.082 13.107-24.412 31.097-24.412 50.925v20.981h18.149c1.49 16.317 10.193 30.571 22.887 39.552H81.103v10h186v-10h-53.118a54.965 54.965 0 0 0 15.638-17.01h33.589l16.022-8.269a30.979 30.979 0 0 0 14.846 3.77h72.388l2.363-.003 1.5-1.822c.086-.105 1.77-2.115 4.883-5.316 3.948 11.917 11.916 21.965 22.186 28.65h-84.297v10h180.605v-10h-36.953c14.928-9.742 24.822-26.58 24.822-45.695 0-12.11-4.076-23.822-11.379-33.311a126.591 126.591 0 0 1 16.104-1.037c4.191 0 5.579-2.857 5.904-3.733 1.668-4.487-2.292-7.902-8.286-13.071-1.349-1.164-2.624-2.262-3.362-3.004-12.035-12.045-27.188-19.814-43.627-22.601L395.953 206.5h12.352v-4.688h1.026c8.797 0 15.953-7.156 15.953-15.952v-.343c0-8.796-7.156-15.953-15.953-15.953h-1.026v-4.688h-34.588c-11.487 0-20.833 9.346-20.833 20.833v9.68c0 .375.02.744.056 1.109h-6.093l-21.27-21.271h-24.982v10h20.84l21.27 21.271h20.063l-11.099 33.635 14.987 88.778a81.3 81.3 0 0 0-17.617 25.385h-56.765a99.837 99.837 0 0 1-6.516-17.217c-7.377-26.731-1.742-50.34 3.053-63.5 5.217-1.314 9.094-6.032 9.094-11.65 0-16.375-13.322-29.697-29.697-29.697H165.28c-11.503 0-20.862 9.358-20.862 20.862 0 3.981 1.141 7.693 3.085 10.862h-9.48V178.75H42.816zm10 85.207V188.75h75.207v75.207H52.816zm67.296 104.879c0-34.482 33.443-62.537 74.55-62.537h18.891c27.199 0 49.327 18.448 49.327 41.124v32.394h-25.99c-2.532-27.745-25.925-49.552-54.315-49.552-28.395 0-51.792 21.807-54.324 49.552h-8.138v-10.981zm18.199 10.981c2.494-22.22 21.389-39.552 44.263-39.552 22.87 0 41.761 17.332 44.254 39.552h-88.517zm59.007 10c-2.09 6.144-7.903 10.581-14.744 10.581-6.845 0-12.661-4.438-14.752-10.581h29.496zm-14.754 39.552c-22.87 0-41.761-17.332-44.254-39.552h19.167c2.333 11.72 12.697 20.581 25.097 20.581 12.395 0 22.756-8.861 25.088-20.581h19.166a44.158 44.158 0 0 1-3.317 12.542h-17.723v10h11.755c-8.165 10.348-20.805 17.01-34.979 17.01zm78.221-27.01h-26.58a54.115 54.115 0 0 0 2.671-12.542h28.934a31.453 31.453 0 0 0 4.871 7.435l-9.896 5.107zm210.793-18.685c0 24.561-19.986 44.542-44.552 44.542-21.044 0-39.33-15.04-43.602-35.391a193.462 193.462 0 0 1 18.665-14.856 25.532 25.532 0 0 0-.648 5.703c0 14.107 11.477 25.585 25.585 25.585s25.585-11.478 25.585-25.585c0-11.097-7.102-20.563-16.998-24.099 7.23-2.935 14.945-5.429 23.1-7.218 8.203 8.325 12.865 19.6 12.865 31.319zm-55.757-10.809 6.763 13.1 8.885-4.587-6.762-13.1a15.558 15.558 0 0 1 2.319-.192c8.594 0 15.585 6.992 15.585 15.586s-6.991 15.585-15.585 15.585-15.585-6.991-15.585-15.585c0-4.196 1.674-8.002 4.38-10.807zm-6.489-193.301a5.96 5.96 0 0 1 5.953 5.953v.343a5.959 5.959 0 0 1-5.953 5.952h-1.026v-12.248h1.026zm-46.447 15.826v-9.68c0-5.974 4.859-10.833 10.833-10.833h24.588V196.5h-34.312a1.112 1.112 0 0 1-1.109-1.11zm-.942 45.524 11.354-34.41h11.858l40.522 99.302c-.812-.023-1.621-.06-2.437-.06-17.681 0-34.227 5.802-47.708 15.667l-13.589-80.499zm61.298 74.832c18.974 0 36.816 7.401 50.239 20.837.888.89 2.098 1.946 3.4 3.072-34.131 2.378-62.188 17.219-80.281 29.837-17.199 11.995-28.455 23.9-32.42 28.368H294.08c-9.956 0-18.329-6.912-20.596-16.2h37.539l-.04-.049 41.281-.002.584-4.331c4.738-35.079 35-61.532 70.393-61.532zm-77.835 48.551a80.652 80.652 0 0 0-1.762 7.313l-40.646.002a103.928 103.928 0 0 1-5.113-7.314h47.521zm-54.697 7.315-17.83.001v-24.19c0-28.189-26.614-51.124-59.327-51.124h-18.891c-18.298 0-35.242 5.029-49.095 13.538 2.897-16.515 10.255-29.319 14.733-35.877h117.805c-4.852 14.896-9.411 38.868-1.984 65.78 3.132 11.349 8.026 22.031 14.589 31.872zM165.28 242.233h102.929c10.861 0 19.697 8.836 19.697 19.697a2.03 2.03 0 0 1-2.027 2.027H165.28c-5.989 0-10.862-4.873-10.862-10.862s4.873-10.862 10.862-10.862zm-16.806 31.724c-4.069 6.908-8.801 16.757-11.631 28.672l-38.11-28.672h49.741z" fill="#428534" class="fill-000000"></path><path d="M90.419 200.669h28.684v10H90.419zM281.113 429.369h17.323v10h-17.323zM53.77 429.369h15.833v10H53.77z" fill="#428534" class="fill-000000"></path></svg>