<svg viewBox="0 0 512 512" xml:space="preserve" xmlns="http://www.w3.org/2000/svg"><path d="M369.059 294.671h10.76v10.759h-10.76zM413.068 261.273h10.76v10.759h-10.76zM336.197 182.032h10.76v10.759h-10.76zM360.828 223.655h10.76v10.759h-10.76zM407.689 335.9h10.76v10.759h-10.76zM135.122 330.801l7.608 7.608-7.607 7.609-7.61-7.608zM127.517 434.822l7.608-7.607 7.607 7.607-7.607 7.608zM142.737 242.812l-7.609 7.609-7.608-7.609 7.608-7.608zM79.745 290.603l7.607-7.609 7.61 7.608-7.608 7.609zM190.912 290.596l-7.608 7.608-7.608-7.608 7.608-7.608zM94.946 388.46l-7.607 7.607-7.608-7.607 7.608-7.608zM183.3 396.07l-7.608-7.609 7.608-7.607 7.608 7.607z" fill="#428534" class="fill-000000"></path><path d="M319.275 131.191h-5v139.504h10V165.668c67.633 2.633 121.84 58.476 121.84 126.743 0 46.61-25.617 89.241-66.055 111.34 1.398-6.638 2.369-12.86 2.748-18.122 1.344-18.597-4.574-37.016-16.234-50.533-7.242-8.395-16.08-14.326-25.754-17.475 8.195-13.436 6.908-30.433 6.838-31.266l-.352-4.213-4.213-.354c-.973-.082-24-1.849-37.654 11.807a63.564 63.564 0 0 0-5.848 6.725c-2.641-15.066-9.916-29.198-20.879-40.018l-7.023 7.117c12.09 11.932 19.025 28.518 19.025 45.504v7.706c-6.232-3.097-12.85-4.941-19.725-5.465a52.43 52.43 0 0 0-4.014-.153c-15.992 0-30.952 7.133-42.125 20.083-6.192 7.179-10.745 15.746-13.471 24.981l-21.691-21.694 37.845-37.845v13.324h10v-47.98c0-20.968-8.245-40.614-23.216-55.316-10.215-10.036-22.749-16.896-36.37-20.111.853-59.39 28.904-82.198 29.175-82.411l11.604-8.958h-14.659c-9.855 0-18.875 1.226-27.027 3.632 5.087-49.938 29.303-69.572 29.542-69.76l11.605-8.958h-14.66c-40.062 0-60.159 19.258-70.233 38.201-11.614-13.987-28.724-21.084-51.023-21.084H67.616l11.6 8.958c.14.108 12.608 10.002 19.715 34.832-11.097-3.954-23.649-5.969-37.631-5.969H46.641l11.603 8.958c.303.233 30.308 24.073 35.498 86.474l9.965-.829c-3.733-44.891-19.62-71.237-30.045-84.001 21.312 2.152 38.215 10.07 50.365 23.618 22.384 24.96 22.881 62.596 22.348 75.207h-37.35c-20.388 0-39.643 7.854-54.215 22.115-15.035 14.7-23.315 34.377-23.315 55.405v144.601c0 21.129 8.352 40.877 23.516 55.606 14.544 14.131 33.727 21.914 54.015 21.914h50.99c20.326 0 39.536-7.813 54.087-21.998a77.305 77.305 0 0 0 12.029-15.042C237.307 475.545 250.813 488 266.344 488c9.771 0 18.955-6.064 26.795-11.75 1.557-1.128 3.566-1.097 5.119.079C304.766 481.254 313.68 488 323.863 488c16.398 0 30.754-13.934 42.699-41.422 31.939-9.796 60.637-29.79 81.006-56.508 21.547-28.26 32.938-62.029 32.938-97.657 0-88.899-72.328-161.222-161.231-161.222zM122.753 98.193a77.194 77.194 0 0 0-12.246-8.188c-3.923-18.122-10.692-30.44-16.233-38.028 15.153 2.306 26.673 9.231 34.368 20.665-3.29 8.935-5.017 17.869-5.889 25.551zM312.51 300.667c7.254-7.253 18.873-8.724 25.23-8.95-.203 5.896-1.49 16.305-7.525 23.611a53.245 53.245 0 0 0-5.764-.316c-1.326 0-2.678.051-4.014.153-6.805.519-13.354 2.333-19.529 5.372.867-5.473 4.69-12.957 11.602-19.87zm-129.89 30.644-40.95-40.955 40.953-40.954 40.953 40.952-40.956 40.957zm-55.096 55.095-40.958 40.958-40.953-40.952 40.958-40.959 40.953 40.953zm-81.905-96.047 40.96-40.959 40.95 40.956-40.958 40.957-40.952-40.954zm48.023 48.024 40.957-40.957 40.949 40.955-40.954 40.955-40.952-40.953zm133.893-72.502v14.29l-37.841-37.84 21.017-21.017c10.873 12.331 16.824 27.967 16.824 44.567zm-95.471-158.725c.413-8.847 1.97-21.21 6.791-33.223 9.254-23.003 26.874-36.164 52.461-39.235-9.04 11.584-21.873 34.288-24.673 71.942-4.776 2.252-9.177 5.002-13.181 8.251l6.301 7.766c8.523-6.916 19.293-11.214 32.117-12.836-9.48 12.292-23.021 37.065-23.922 78.948a78.695 78.695 0 0 0-7.943-.408h-3.602c.631-14.279-.122-53.568-24.349-81.205zm27.951 91.205c16.113 0 31.39 5.641 43.556 15.951l-20.947 20.948-36.899-36.899h14.29zm15.537 43.97-40.953 40.953-40.949-40.955 40.95-40.951 40.952 40.953zm-66.527-43.97h14.451L86.581 235.26 65.56 214.236c12.16-10.261 27.403-15.875 43.465-15.875zm-67.53 67.52c0-16.655 5.981-32.324 16.91-44.658l21.106 21.109-38.017 38.021v-14.472zm0 34.496L79.5 338.383l-38.006 38.006v-76.012zm0 110.104v-14.047l38 38-20.911 20.911c-11.044-12.368-17.089-28.113-17.089-44.864zm67.53 67.521c-15.966 0-31.135-5.551-43.26-15.696l20.801-20.8 36.495 36.496h-14.036zm-15.389-43.566 40.959-40.959 40.96 40.961-40.952 40.964-40.967-40.966zm66.379 43.566h-13.872l36.482-36.494 20.724 20.725c-12.136 10.193-27.332 15.769-43.334 15.769zm50.505-22.741-20.824-20.825 15.864-15.869-7.07-7.07-15.865 15.869-40.959-40.959 40.953-40.953 26.33 26.334a72.284 72.284 0 0 0-.329 13.842c.866 11.973 5.151 33.22 12.602 53.348a67.147 67.147 0 0 1-10.702 16.283zm148.003-15.336c-7.205 17.369-19.068 38.073-34.66 38.073-6.313 0-12.598-4.367-19.57-9.645a14.325 14.325 0 0 0-8.658-2.93c-2.926 0-5.854.908-8.365 2.729-6.57 4.764-14.148 9.846-20.926 9.846-15.606 0-27.151-20.758-34.088-38.172-8.135-20.418-12.784-42.781-13.661-54.918-1.155-15.979 3.886-31.753 13.83-43.281 10.006-11.599 23.602-17.566 37.806-16.491 6.59.503 12.906 2.491 18.775 5.911a12.86 12.86 0 0 0 1.709.827v13.42h10v-13.421a13.358 13.358 0 0 0 1.709-.826c5.867-3.42 12.184-5.408 18.773-5.911 14.238-1.077 27.799 4.894 37.805 16.491 9.945 11.529 14.986 27.305 13.832 43.281-1.057 14.627-6.941 37.252-14.311 55.017zm12.821-5.506a244.862 244.862 0 0 0 5.627-17.917c48.152-22.413 79.145-70.843 79.145-124.091 0-73.779-58.693-134.097-131.84-136.739v-14.399c81.082 2.649 146.23 69.43 146.23 151.138 0 63.424-40.289 120.393-99.162 142.008z" fill="#428534" class="fill-000000"></path><path d="M344.496 352.018c7.215 8.363 10.865 19.935 10.012 31.743-.387 5.345-1.584 12.267-3.461 20.019l9.719 2.354c2.006-8.279 3.291-15.766 3.717-21.651 1.043-14.43-3.482-28.644-12.414-38.998l-7.573 6.533zM341.369 433.83l9.236 3.83c2.113-5.096 4.133-10.689 6.004-16.629l-9.537-3.004c-1.783 5.66-3.703 10.977-5.703 15.803zM430.838 130.508h10V118.12h12.389v-10h-12.389V95.731h-10v12.389h-12.389v10h12.389zM256.672 210.75h10v-12.389h12.389v-10h-12.389v-12.388h-10v12.388h-12.389v10h12.389zM297.846 93.352h10V80.963h12.388v-10h-12.388V58.574h-10v12.389h-12.389v10h12.389z" fill="#428534" class="fill-000000"></path></svg>